# xmcd CD database file
#
# Track frame offsets:
#	150
#	14597
#	34295
#	51737
#	66460
#	86697
#	104512
#	121610
#	141237
#	162787
#	188442
#	207460
#	223775
#	240890
#	265125
#
# Disc length: 3739 seconds
#
# Revision: 0
# Processed by: cddbd v1.5.1PL2 Copyright (c) Steve Scherf et al.
# Submitted via: CDex 1.51
#
DISCID=dd0e990f
DTITLE=Various Artist - promo radio Sony Music no.0035
DYEAR=1991
DGENRE=Pop Rock
TTITLE0=Cassandra Vasik  -  it comes back to you
TTITLE1=Chris Whitley  -  big sky country (edit)
TTITLE2=Michael Bolton  -  when a man loves a woman
TTITLE3=Cheap Trick  -  magical mysrery tour
TTITLE4=Rush  -  roll the bones (edit)
TTITLE5=Danger Danger  -  monkey business
TTITLE6=Tall Stories  -  wild on the run
TTITLE7=Fabulous Thunderbirds  -  roller coaster
TTITLE8=Joe Walsh  -  look at us now
TTITLE9=Pearl Jam  -  alive
TTITLE10=Reo Speedwagon  -  all heaven broke loose  (single mix)
TTITLE11=Deborah Blando  -  boy (why you wanna make me blue  (lovely radio edit)
TTITLE12=Big Audio Dynamite II  -  the globe  (single edit)
TTITLE13=Public Enemy  -  can't truss it  (Almighty Raw 125th Street Bootleg Mix)
TTITLE14=Slick Rick  -  mistakes of a woman in love with other men  (the remix)
EXTD=YEAR: 1991
EXTT0=
EXTT1=
EXTT2=
EXTT3=
EXTT4=
EXTT5=
EXTT6=
EXTT7=
EXTT8=
EXTT9=
EXTT10=
EXTT11=
EXTT12=
EXTT13=
EXTT14=
PLAYORDER=
